<svg width="1024" height="1024" viewBox="0 0 1024 1024" fill="none" xmlns="http://www.w3.org/2000/svg">
<rect width="1024" height="1024" fill="#0B0809"/>
<path d="M351.638 267.499V217H300.818V267.499H351.638Z" fill="white"/>
<path fill-rule="evenodd" clip-rule="evenodd" d="M554.91 267.499H351.638L351.632 368.5H300.812L300.818 317.999H250V368.5H300.812V419H250V469.5H300.812L300.818 570.5H250V621H300.818V570.5H351.632V621H402.452L402.45 772.501H351.632V823H402.45V772.501H453.276L453.27 671.501H504.09V722.001H605.73V772.501H656.548V722.001H605.73L605.728 621H656.548L656.542 671.501H707.362V621H758.182V570.5H809V520.001H758.182V570.5H707.368L707.362 520.001H656.548V469.5H758.182V419H707.368L707.362 368.5H656.548V317.999H707.368V267.499H758.188V217H707.368V267.499H605.728V217H554.91V267.499ZM554.91 267.499V317.999H605.728V267.499H554.91ZM300.812 469.5H351.632V419H300.812V469.5Z" fill="white"/>
</svg>
