<svg width="2732" height="2732" viewBox="0 0 2732 2732" fill="none" xmlns="http://www.w3.org/2000/svg">
<rect width="2732" height="2732" fill="#0B0809"/>
<path d="M1187.73 1068.75V1005H1123.36V1068.75H1187.73Z" fill="white"/>
<path fill-rule="evenodd" clip-rule="evenodd" d="M1445.18 1068.75H1187.73L1187.72 1196.25H1123.36L1123.36 1132.5H1059V1196.25H1123.36V1260H1059V1323.75H1123.36L1123.36 1451.25H1059V1515H1123.36V1451.25H1187.72V1515H1252.09L1252.09 1706.25H1187.72V1770H1252.09V1706.25H1316.46L1316.45 1578.75H1380.82V1642.5H1509.55V1706.25H1573.91V1642.5H1509.55L1509.55 1515H1573.91L1573.9 1578.75H1638.27V1515H1702.64V1451.25H1767V1387.5H1702.64V1451.25H1638.28L1638.27 1387.5H1573.91V1323.75H1702.64V1260H1638.28L1638.27 1196.25H1573.91V1132.5H1638.28V1068.75H1702.64V1005H1638.28V1068.75H1509.55V1005H1445.18V1068.75ZM1445.18 1068.75V1132.5H1509.55V1068.75H1445.18ZM1123.36 1323.75H1187.72V1260H1123.36V1323.75Z" fill="white"/>
</svg>
